<svg width="55" height="55" viewBox="0 0 55 55" fill="none" xmlns="http://www.w3.org/2000/svg">
<path d="M0 7.17407C0 5.27139 0.724328 3.44664 2.01364 2.10124C3.30295 0.755837 5.05164 0 6.875 0L48.125 0C49.9484 0 51.697 0.755837 52.9864 2.10124C54.2757 3.44664 55 5.27139 55 7.17407V35.8703C55 37.773 54.2757 39.5978 52.9864 40.9432C51.697 42.2886 49.9484 43.0444 48.125 43.0444H39.5312C38.9976 43.0444 38.4713 43.1741 37.994 43.4231C37.5166 43.6721 37.1014 44.0337 36.7812 44.4792L30.25 53.5652C29.9298 54.0107 29.5146 54.3723 29.0373 54.6213C28.56 54.8703 28.0337 55 27.5 55C26.9663 55 26.44 54.8703 25.9627 54.6213C25.4854 54.3723 25.0702 54.0107 24.75 53.5652L18.2188 44.4792C17.8986 44.0337 17.4834 43.6721 17.006 43.4231C16.5287 43.1741 16.0024 43.0444 15.4688 43.0444H6.875C5.05164 43.0444 3.30295 42.2886 2.01364 40.9432C0.724328 39.5978 0 37.773 0 35.8703V7.17407ZM12.0312 10.7611C11.5754 10.7611 11.1382 10.9501 10.8159 11.2864C10.4936 11.6228 10.3125 12.079 10.3125 12.5546C10.3125 13.0303 10.4936 13.4865 10.8159 13.8228C11.1382 14.1592 11.5754 14.3481 12.0312 14.3481H42.9688C43.4246 14.3481 43.8618 14.1592 44.1841 13.8228C44.5064 13.4865 44.6875 13.0303 44.6875 12.5546C44.6875 12.079 44.5064 11.6228 44.1841 11.2864C43.8618 10.9501 43.4246 10.7611 42.9688 10.7611H12.0312ZM12.0312 19.7287C11.5754 19.7287 11.1382 19.9176 10.8159 20.254C10.4936 20.5903 10.3125 21.0465 10.3125 21.5222C10.3125 21.9979 10.4936 22.4541 10.8159 22.7904C11.1382 23.1268 11.5754 23.3157 12.0312 23.3157H42.9688C43.4246 23.3157 43.8618 23.1268 44.1841 22.7904C44.5064 22.4541 44.6875 21.9979 44.6875 21.5222C44.6875 21.0465 44.5064 20.5903 44.1841 20.254C43.8618 19.9176 43.4246 19.7287 42.9688 19.7287H12.0312ZM12.0312 28.6963C11.5754 28.6963 11.1382 28.8852 10.8159 29.2216C10.4936 29.5579 10.3125 30.0141 10.3125 30.4898C10.3125 30.9655 10.4936 31.4217 10.8159 31.758C11.1382 32.0944 11.5754 32.2833 12.0312 32.2833H29.2188C29.6746 32.2833 30.1118 32.0944 30.4341 31.758C30.7564 31.4217 30.9375 30.9655 30.9375 30.4898C30.9375 30.0141 30.7564 29.5579 30.4341 29.2216C30.1118 28.8852 29.6746 28.6963 29.2188 28.6963H12.0312Z" fill="url(#paint0_linear_402_215)"/>
<defs>
<linearGradient id="paint0_linear_402_215" x1="55" y1="27.5" x2="-2.63272e-07" y2="27.5" gradientUnits="userSpaceOnUse">
<stop stop-color="#171717"/>
<stop offset="1" stop-color="#171717"/>
</linearGradient>
</defs>
</svg>
